<?xml version="1.0" standalone="no"?><!DOCTYPE svg PUBLIC "-//W3C//DTD SVG 1.1//EN" "http://www.w3.org/Graphics/SVG/1.1/DTD/svg11.dtd"><svg t="1536632855107" class="icon" style="" viewBox="0 0 1024 1024" version="1.1" xmlns="http://www.w3.org/2000/svg" p-id="9853" xmlns:xlink="http://www.w3.org/1999/xlink" width="200" height="200"><defs><style type="text/css"></style></defs><path d="M661.7 367.6H365.4c-10.2 0-18.5 8.2-18.5 18.3v236.9c4-5.7 8.4-11.4 13.3-17.2 4.9-5.7 10-10.9 15.3-15.5 5.3-4.6 10.8-8.4 16.5-11.4 5.7-3 11.4-4.5 17.1-4.5 6.9 0 12.8 0.5 17.8 1.5s9.4 2.3 13.3 3.8c3.9 1.5 7.5 3.2 10.8 5.1 3.3 1.9 6.9 3.6 10.8 5.1 3.9 1.5 8.3 2.8 13.2 3.8 4.9 1 10.8 1.5 17.6 1.5 6.9 0 12.8-2 17.8-6.1s9.6-9.2 13.8-15.4c4.2-6.2 8.4-12.8 12.7-19.8 4.2-7 9-13.7 14.3-19.8 5.3-6.2 11.7-11.3 19-15.4 7.3-4.1 16.2-6.1 26.6-6.1 8.9 0 17.4 2.7 25.6 8.1 8.2 5.4 15.8 12.4 22.8 21s13.4 18.2 19.3 28.7c5.9 10.6 11 20.9 15.5 31V386c0.2-10.1-8.1-18.4-18.3-18.4zM509.2 480.8c-2.8 6.3-6.5 11.8-11.2 16.5-4.7 4.7-10.2 8.5-16.5 11.2-6.3 2.8-13 4.1-20.1 4.1-7.3 0-14.2-1.4-20.5-4.1-6.3-2.8-11.8-6.5-16.5-11.2-4.7-4.7-8.4-10.2-11.2-16.5-2.8-6.3-4.2-12.9-4.2-20 0-7 1.4-13.7 4.2-20 2.8-6.3 6.5-11.7 11.2-16.3 4.7-4.6 10.2-8.3 16.5-11.1 6.3-2.8 13.2-4.1 20.5-4.1 7.1 0 13.8 1.4 20.1 4.1 6.3 2.8 11.8 6.4 16.5 11.1 4.7 4.6 8.4 10.1 11.2 16.3 2.8 6.3 4.2 12.9 4.2 20 0 7-1.4 13.7-4.2 20z" p-id="9854" fill="#28A039"></path><path d="M513.4 65.6c-246.8 0-446.8 200-446.8 446.8s200 446.8 446.8 446.8 446.8-200 446.8-446.8-200-446.8-446.8-446.8z m208.4 592c0 22.6-18.5 40.9-41.3 40.9H346.2c-22.8 0-41.3-18.3-41.3-40.9V367.3c0-22.6 18.5-40.9 41.3-40.9h334.3c22.8 0 41.3 18.3 41.3 40.9v290.3z" fill="#28A039" p-id="9855"></path></svg>