<?xml version="1.0" encoding="utf-8"?>
<!-- Generator: Adobe Illustrator 15.0.0, SVG Export Plug-In . SVG Version: 6.00 Build 0)  -->
<!DOCTYPE svg PUBLIC "-//W3C//DTD SVG 1.1//EN" "http://www.w3.org/Graphics/SVG/1.1/DTD/svg11.dtd">
<svg version="1.1" id="图层_1" xmlns="http://www.w3.org/2000/svg" xmlns:xlink="http://www.w3.org/1999/xlink" x="0px" y="0px"
	 width="200px" height="200px" viewBox="0 0 200 200" enable-background="new 0 0 200 200" xml:space="preserve">
<path fill="#28A039" d="M133.47,67.665H67.144c-2.283,0-4.141,1.835-4.141,4.097v53.029c0.896-1.276,1.88-2.552,2.977-3.851
	c1.097-1.275,2.239-2.439,3.425-3.47c1.187-1.029,2.417-1.88,3.694-2.552c1.276-0.671,2.552-1.007,3.828-1.007
	c1.544,0,2.865,0.111,3.984,0.336c1.119,0.224,2.104,0.515,2.977,0.851c0.873,0.335,1.679,0.716,2.417,1.142
	c0.739,0.425,1.545,0.806,2.418,1.142c0.873,0.335,1.858,0.626,2.955,0.851c1.097,0.224,2.417,0.336,3.939,0.336
	c1.545,0,2.865-0.448,3.985-1.366c1.119-0.918,2.149-2.06,3.089-3.447c0.939-1.388,1.88-2.865,2.843-4.432
	c0.939-1.567,2.015-3.067,3.2-4.433c1.187-1.388,2.619-2.529,4.254-3.447c1.634-0.918,3.626-1.365,5.954-1.365
	c1.992,0,3.895,0.604,5.73,1.813c1.835,1.208,3.537,2.775,5.104,4.7c1.567,1.926,3,4.074,4.32,6.425
	c1.32,2.373,2.462,4.679,3.47,6.939V71.784C137.611,69.523,135.753,67.665,133.47,67.665L133.47,67.665z M99.333,93.004
	c-0.627,1.411-1.455,2.642-2.507,3.694c-1.052,1.052-2.283,1.902-3.693,2.507c-1.41,0.627-2.91,0.918-4.5,0.918
	c-1.634,0-3.179-0.313-4.589-0.918c-1.41-0.627-2.641-1.455-3.693-2.507c-1.052-1.052-1.88-2.283-2.507-3.694
	c-0.626-1.41-0.94-2.888-0.94-4.477c0-1.567,0.313-3.067,0.94-4.477c0.627-1.41,1.455-2.619,2.507-3.649s2.283-1.858,3.693-2.484
	C85.455,77.291,87,77,88.633,77c1.589,0,3.089,0.313,4.5,0.918c1.41,0.626,2.641,1.433,3.693,2.484
	c1.052,1.03,1.88,2.261,2.507,3.649c0.626,1.41,0.94,2.888,0.94,4.477C100.273,90.095,99.96,91.594,99.333,93.004z"/>
<path fill="#28A039" d="M100.273,0.063C45.028,0.063,0.259,44.833,0.259,100.078c0,55.245,44.769,100.015,100.015,100.015
	c55.245,0,100.015-44.77,100.015-100.015C200.288,44.833,155.519,0.063,100.273,0.063z M146.923,132.581
	c0,5.059-4.141,9.155-9.244,9.155H62.846c-5.104,0-9.245-4.097-9.245-9.155V67.598c0-5.059,4.141-9.156,9.245-9.156h74.833
	c5.104,0,9.244,4.097,9.244,9.156V132.581z"/>
</svg>
