<!DOCTYPE svg PUBLIC "-//W3C//DTD SVG 1.1//EN" "http://www.w3.org/Graphics/SVG/1.1/DTD/svg11.dtd"><svg t="1536632716631" class="icon" style="" viewBox="0 0 1024 1024" version="1.1" xmlns="http://www.w3.org/2000/svg" p-id="1910" xmlns:xlink="http://www.w3.org/1999/xlink" width="200" height="200"><defs><style type="text/css"></style></defs><path d="M512 0C229.2125 0 0 229.25 0 512s229.25 512 512 512 512-229.25 512-512S794.75 0 512 0z m-118.875 670a329.3125 329.3125 0 0 1-110.8875-19.0375L186.25 715.2375v-3.875l31.1375-92.7625c-70-46.025-115.3875-118.6-115.3875-200.5125 0-139.1375 130.3625-251.975 291.175-251.975 146.55 0 267.5 93.75 287.8 215.7375-61.175 1.775-288.1875 26.05-263.225 287.1125-8.125 0.575-16.25 1.0875-24.575 1.0875z m427.5 108.0375l19.8125 71.0375-73.575-44.3625a275.125 275.125 0 0 1-92.5 15.875c-135 0-244.5125-95.1625-244.5125-212.6S539.325 395.375 674.3625 395.375 918.75 490.5875 918.75 608.0375c0 69.6625-38.6875 131.25-98.175 170zM328.35 335.8375a40.1625 40.1625 0 1 1-40.1625-40.1625 40.175 40.175 0 0 1 40.1625 40.1625z m208.9 0a40.1625 40.1625 0 1 1-40.1625-40.1625 40.175 40.175 0 0 1 40.1625 40.1625z m102.0125 208.8625a40.1625 40.1625 0 1 1-40.1625-40.15 40.175 40.175 0 0 1 40.1625 40.15z m161.25 0a40.1625 40.1625 0 1 1-40.15-40.15 40.1625 40.1625 0 0 1 40.15 40.15z" fill="#28A039" p-id="1911"></path></svg>